<svg width="635" height="100" viewBox="0 0 635 100" fill="none" xmlns="http://www.w3.org/2000/svg">
<g clip-path="url(#clip0_437_1229)">
<path d="M60.103 29.2681V59.6882L43.8347 71.2012V40.7722H22.855L39.1233 29.2681H60.103ZM16.2683 45.4413L0 56.9544H20.9797V100.334L37.2573 88.8213V45.4413H16.2683Z" fill="url(#paint0_linear_437_1229)"/>
<path d="M89.1708 54.5217V70.2681H84.1952V29.2925C85.8342 29.2925 87.5708 29.2729 89.4049 29.2339C91.2391 29.1949 93.0732 29.1754 94.9074 29.1754C100.293 29.1754 104.156 30.3851 106.498 32.8046C108.878 35.1851 110.068 38.2095 110.068 41.8778C110.068 45.429 108.781 48.4729 106.205 51.0095C103.707 53.5071 100.078 54.7559 95.3171 54.7559C92.8196 54.7559 90.7708 54.6778 89.1708 54.5217ZM95.3757 33.8583C94.6732 33.8583 92.6049 33.8973 89.1708 33.9754V49.7803C91.6293 49.9754 93.6196 50.0729 95.1415 50.0729C98.1464 50.0729 100.507 49.351 102.224 47.9071C103.942 46.4242 104.8 44.3949 104.8 41.8193C104.8 39.2827 104 37.3315 102.4 35.9656C100.839 34.5607 98.4976 33.8583 95.3757 33.8583ZM124.098 53.8778V70.2681H119.123V29.2925C120.996 29.2925 122.967 29.2729 125.035 29.2339C127.103 29.1949 128.801 29.1754 130.128 29.1754C139.845 29.1754 144.703 33.2339 144.703 41.351C144.703 44.3949 143.825 46.9315 142.069 48.9607C140.43 50.951 138.342 52.2778 135.806 52.9412L149.445 70.2681H143.357L130.772 53.8778H124.098ZM129.835 33.8583C129.445 33.8583 127.533 33.8973 124.098 33.9754V49.1949H130.128C132.664 49.1949 134.83 48.4925 136.625 47.0876C138.498 45.6047 139.435 43.712 139.435 41.4095C139.435 36.3754 136.235 33.8583 129.835 33.8583ZM162.883 70.2681H157.908V29.2925H162.883V70.2681ZM176.988 70.2681H176.345V29.2925H177.047C178.725 29.2925 180.384 29.2729 182.023 29.2339C185.379 29.1559 187.213 29.1168 187.525 29.1168C191.506 29.1168 194.998 29.6632 198.003 30.7559C201.008 31.8095 203.408 33.2925 205.203 35.2046C206.998 37.0778 208.325 39.2047 209.184 41.5851C210.081 43.9266 210.53 46.4827 210.53 49.2534C210.53 55.3803 208.481 60.4339 204.384 64.4144C200.325 68.3949 194.549 70.3851 187.057 70.3851C185.418 70.3851 183.818 70.3656 182.257 70.3266C180.735 70.2876 178.979 70.2681 176.988 70.2681ZM187.408 33.7998C186.706 33.7998 185.632 33.8388 184.188 33.9168C182.784 33.9559 181.827 33.9754 181.32 33.9754V65.5851C182.335 65.5851 183.31 65.6047 184.247 65.6437C185.223 65.6437 185.945 65.6632 186.413 65.7022C186.881 65.7022 187.154 65.7022 187.232 65.7022C192.891 65.7022 197.32 64.1998 200.52 61.1949C203.681 58.151 205.262 54.1705 205.262 49.2534C205.262 44.6486 203.72 40.9217 200.637 38.0729C197.554 35.2242 193.145 33.7998 187.408 33.7998ZM243.326 70.2681H219.618V29.2925H242.74V33.9754H224.594V47.2046H240.984V51.8876H224.594V65.5851H243.326V70.2681ZM278.4 29.2925H284.313L269.795 49.429L284.839 70.2681H278.927L266.517 53.2339L254.166 70.2681H248.313L263.356 49.429L248.956 29.2925H254.81L266.693 45.6827L278.4 29.2925ZM295.259 68.1607C295.259 67.6144 295.467 67.1331 295.884 66.7168C296.326 66.3006 296.859 66.0925 297.484 66.0925C298.03 66.0925 298.511 66.3006 298.927 66.7168C299.344 67.1331 299.552 67.6144 299.552 68.1607C299.552 68.7851 299.357 69.3185 298.967 69.7607C298.576 70.177 298.082 70.3851 297.484 70.3851C296.859 70.3851 296.326 70.177 295.884 69.7607C295.467 69.3185 295.259 68.7851 295.259 68.1607ZM320.893 70.2681H317.674V29.2925H320.893V70.2681ZM341.627 32.3364H326.466V29.2925H360.007V32.3364H344.846V70.2681H341.627V32.3364ZM399.761 60.0827C399.761 58.2876 399.234 56.7461 398.18 55.4583C397.127 54.1705 395.819 53.1949 394.258 52.5315C392.697 51.8681 391 51.1461 389.166 50.3656C387.332 49.5461 385.634 48.7461 384.073 47.9656C382.512 47.1851 381.205 46.0339 380.151 44.512C379.097 42.951 378.571 41.1168 378.571 39.0095C378.571 36.0437 379.644 33.6046 381.79 31.6925C383.976 29.7412 386.902 28.7656 390.571 28.7656C395.371 28.7656 399.039 30.151 401.576 32.9217L399.819 35.3217C397.478 32.9803 394.434 31.8095 390.688 31.8095C387.995 31.8095 385.868 32.4729 384.307 33.7998C382.746 35.0876 381.966 36.8242 381.966 39.0095C381.966 40.7656 382.493 42.2876 383.546 43.5754C384.6 44.8242 385.907 45.7607 387.468 46.3851C389.029 47.0095 390.727 47.712 392.561 48.4925C394.395 49.2339 396.093 49.9949 397.654 50.7754C399.215 51.5559 400.522 52.7461 401.576 54.3461C402.629 55.9071 403.156 57.7998 403.156 60.0242C403.156 63.2242 401.907 65.8193 399.41 67.8095C396.912 69.7998 393.81 70.7949 390.102 70.7949C387.566 70.7949 385.068 70.2681 382.61 69.2144C380.19 68.0827 378.493 66.6388 377.517 64.8827L379.449 62.6583C380.619 64.1803 382.18 65.4095 384.132 66.3461C386.083 67.2827 388.054 67.751 390.044 67.751C392.697 67.751 394.98 67.0681 396.893 65.7022C398.805 64.3754 399.761 62.5022 399.761 60.0827ZM441.14 29.2925H444.36V53.1168C444.36 59.0095 442.896 63.4193 439.97 66.3461C437.043 69.2729 433.335 70.7364 428.848 70.7364C423.892 70.7364 419.872 69.1949 416.789 66.112C413.745 63.029 412.223 58.5607 412.223 52.7071V29.2925H415.443V52.1217C415.443 56.9998 416.633 60.8242 419.013 63.5949C421.433 66.3266 424.711 67.6925 428.848 67.6925C432.672 67.6925 435.677 66.3851 437.862 63.7705C440.048 61.1559 441.14 57.3705 441.14 52.4144V29.2925ZM459.988 53.8193V70.2681H456.768V29.2925C458.368 29.2925 460.027 29.2729 461.744 29.2339C463.461 29.1949 465.139 29.1754 466.778 29.1754C469.51 29.1754 471.851 29.5266 473.802 30.229C475.793 30.9315 477.315 31.8876 478.368 33.0973C479.422 34.3071 480.183 35.6144 480.651 37.0193C481.119 38.3851 481.354 39.8876 481.354 41.5266C481.354 45.0778 480.124 48.0437 477.666 50.4242C475.168 52.8437 471.539 54.0534 466.778 54.0534C464.085 54.0534 461.822 53.9754 459.988 53.8193ZM467.071 32.2193C465.783 32.2193 463.422 32.2583 459.988 32.3364V50.7168C462.797 50.912 465.022 51.0095 466.661 51.0095C470.251 51.0095 473.022 50.151 474.973 48.4339C476.963 46.7168 477.958 44.3949 477.958 41.4681C477.958 38.5803 477.041 36.3168 475.207 34.6778C473.412 33.0388 470.7 32.2193 467.071 32.2193ZM494.229 53.8193V70.2681H491.01V29.2925C492.61 29.2925 494.268 29.2729 495.985 29.2339C497.702 29.1949 499.381 29.1754 501.02 29.1754C503.751 29.1754 506.093 29.5266 508.044 30.229C510.034 30.9315 511.556 31.8876 512.61 33.0973C513.663 34.3071 514.424 35.6144 514.893 37.0193C515.361 38.3851 515.595 39.8876 515.595 41.5266C515.595 45.0778 514.366 48.0437 511.907 50.4242C509.41 52.8437 505.781 54.0534 501.02 54.0534C498.327 54.0534 496.063 53.9754 494.229 53.8193ZM501.312 32.2193C500.024 32.2193 497.663 32.2583 494.229 32.3364V50.7168C497.039 50.912 499.263 51.0095 500.902 51.0095C504.493 51.0095 507.263 50.151 509.215 48.4339C511.205 46.7168 512.2 44.3949 512.2 41.4681C512.2 38.5803 511.283 36.3168 509.449 34.6778C507.654 33.0388 504.942 32.2193 501.312 32.2193ZM521 49.7803C521 43.8095 522.951 38.8144 526.854 34.7949C530.756 30.7754 535.654 28.7656 541.547 28.7656C547.4 28.7656 552.278 30.7559 556.181 34.7364C560.122 38.6778 562.093 43.6925 562.093 49.7803C562.093 55.751 560.122 60.7656 556.181 64.8242C552.278 68.8047 547.4 70.7949 541.547 70.7949C535.693 70.7949 530.795 68.8242 526.854 64.8827C522.951 60.9412 521 55.9071 521 49.7803ZM524.395 49.7803C524.395 54.8534 526.034 59.1266 529.312 62.5998C532.629 66.0339 536.708 67.751 541.547 67.751C546.542 67.751 550.639 66.0339 553.839 62.5998C557.078 59.1266 558.698 54.8534 558.698 49.7803C558.698 44.59 557.039 40.3168 553.722 36.9607C550.444 33.5266 546.386 31.8095 541.547 31.8095C536.669 31.8095 532.59 33.5266 529.312 36.9607C526.034 40.3559 524.395 44.629 524.395 49.7803ZM574.946 53.0583V70.2681H571.726V29.2925C573.482 29.2925 575.258 29.2729 577.053 29.2339C578.848 29.1949 580.351 29.1754 581.56 29.1754C591.121 29.1754 595.902 33.1168 595.902 40.9998C595.902 43.8095 594.985 46.2876 593.151 48.4339C591.317 50.5022 588.995 51.829 586.185 52.4144L600.526 70.2681H596.546L582.907 53.0583H574.946ZM581.385 32.2193C580.526 32.2193 578.38 32.2583 574.946 32.3364V50.0144H582.029C584.799 50.0144 587.219 49.1754 589.287 47.4973C591.434 45.8193 592.507 43.6534 592.507 40.9998C592.507 35.1461 588.799 32.2193 581.385 32.2193ZM615.159 32.3364H599.999V29.2925H633.54V32.3364H618.379V70.2681H615.159V32.3364Z" fill="#607D8D"/>
</g>
<defs>
<linearGradient id="paint0_linear_437_1229" x1="30.0515" y1="29.2681" x2="46.3415" y2="104.878" gradientUnits="userSpaceOnUse">
<stop offset="0.095" stop-color="#0082C8"/>
<stop offset="0.314" stop-color="#3A8DDE"/>
<stop offset="0.589" stop-color="#6BC4E8"/>
<stop offset="0.864" stop-color="#91D8EA"/>
</linearGradient>
<clipPath id="clip0_437_1229">
<rect width="634.146" height="100" fill="white"/>
</clipPath>
</defs>
</svg>
